<svg id="visual" viewBox="0 0 900 600" width="900" height="600" xmlns="http://www.w3.org/2000/svg" xmlns:xlink="http://www.w3.org/1999/xlink" version="1.1"><g stroke-width="1" stroke-linejoin="bevel"><path d="M431 287L364 236L325 277Z" fill="#0a437f" stroke="#0a437f"></path><path d="M421 98L317 192L364 236Z" fill="#1d5999" stroke="#1d5999"></path><path d="M364 236L317 192L325 277Z" fill="#48a0e9" stroke="#48a0e9"></path><path d="M214 274L263 366L325 277Z" fill="#337cc0" stroke="#337cc0"></path><path d="M325 277L438 415L431 287Z" fill="#2564a6" stroke="#2564a6"></path><path d="M263 366L438 415L325 277Z" fill="#2564a6" stroke="#2564a6"></path><path d="M510 425L521 262L431 287Z" fill="#1d5999" stroke="#1d5999"></path><path d="M431 287L491 167L364 236Z" fill="#003972" stroke="#003972"></path><path d="M317 192L214 274L325 277Z" fill="#48a0e9" stroke="#48a0e9"></path><path d="M521 262L491 167L431 287Z" fill="#0a437f" stroke="#0a437f"></path><path d="M438 415L510 425L431 287Z" fill="#0a437f" stroke="#0a437f"></path><path d="M491 167L421 98L364 236Z" fill="#1d5999" stroke="#1d5999"></path><path d="M317 192L180 198L214 274Z" fill="#2564a6" stroke="#2564a6"></path><path d="M300 522L435 487L438 415Z" fill="#144e8c" stroke="#144e8c"></path><path d="M438 415L435 487L510 425Z" fill="#144e8c" stroke="#144e8c"></path><path d="M216 76L180 198L317 192Z" fill="#337cc0" stroke="#337cc0"></path><path d="M521 262L569 182L491 167Z" fill="#337cc0" stroke="#337cc0"></path><path d="M491 167L531 128L421 98Z" fill="#3a87ce" stroke="#3a87ce"></path><path d="M618 307L569 182L521 262Z" fill="#2564a6" stroke="#2564a6"></path><path d="M569 182L531 128L491 167Z" fill="#4193dc" stroke="#4193dc"></path><path d="M510 425L618 307L521 262Z" fill="#2c70b3" stroke="#2c70b3"></path><path d="M421 98L277 65L317 192Z" fill="#144e8c" stroke="#144e8c"></path><path d="M175 466L300 522L263 366Z" fill="#337cc0" stroke="#337cc0"></path><path d="M263 366L300 522L438 415Z" fill="#0a437f" stroke="#0a437f"></path><path d="M116 307L263 366L214 274Z" fill="#48a0e9" stroke="#48a0e9"></path><path d="M422 600L484 525L435 487Z" fill="#1d5999" stroke="#1d5999"></path><path d="M435 487L484 525L510 425Z" fill="#48a0e9" stroke="#48a0e9"></path><path d="M510 425L637 437L618 307Z" fill="#48a0e9" stroke="#48a0e9"></path><path d="M674 130L579 123L569 182Z" fill="#337cc0" stroke="#337cc0"></path><path d="M569 182L579 123L531 128Z" fill="#2564a6" stroke="#2564a6"></path><path d="M473 0L403 0L421 98Z" fill="#4facf7" stroke="#4facf7"></path><path d="M421 98L313 0L277 65Z" fill="#48a0e9" stroke="#48a0e9"></path><path d="M180 198L116 307L214 274Z" fill="#2c70b3" stroke="#2c70b3"></path><path d="M116 307L160 438L263 366Z" fill="#337cc0" stroke="#337cc0"></path><path d="M277 65L216 76L317 192Z" fill="#337cc0" stroke="#337cc0"></path><path d="M180 198L111 173L116 307Z" fill="#003972" stroke="#003972"></path><path d="M160 438L175 466L263 366Z" fill="#4facf7" stroke="#4facf7"></path><path d="M484 525L598 461L510 425Z" fill="#003972" stroke="#003972"></path><path d="M473 0L421 98L531 128Z" fill="#1d5999" stroke="#1d5999"></path><path d="M277 65L173 0L216 76Z" fill="#1d5999" stroke="#1d5999"></path><path d="M216 76L111 173L180 198Z" fill="#003972" stroke="#003972"></path><path d="M403 0L313 0L421 98Z" fill="#144e8c" stroke="#144e8c"></path><path d="M598 461L637 437L510 425Z" fill="#4193dc" stroke="#4193dc"></path><path d="M577 0L473 0L531 128Z" fill="#3a87ce" stroke="#3a87ce"></path><path d="M116 307L91 398L160 438Z" fill="#48a0e9" stroke="#48a0e9"></path><path d="M160 438L60 526L175 466Z" fill="#144e8c" stroke="#144e8c"></path><path d="M0 270L91 398L116 307Z" fill="#1d5999" stroke="#1d5999"></path><path d="M300 522L422 600L435 487Z" fill="#48a0e9" stroke="#48a0e9"></path><path d="M484 525L575 600L598 461Z" fill="#2564a6" stroke="#2564a6"></path><path d="M598 461L696 491L637 437Z" fill="#0a437f" stroke="#0a437f"></path><path d="M314 600L422 600L300 522Z" fill="#0a437f" stroke="#0a437f"></path><path d="M637 437L694 310L618 307Z" fill="#3a87ce" stroke="#3a87ce"></path><path d="M618 307L691 210L569 182Z" fill="#1d5999" stroke="#1d5999"></path><path d="M215 600L300 522L175 466Z" fill="#4facf7" stroke="#4facf7"></path><path d="M215 600L314 600L300 522Z" fill="#1d5999" stroke="#1d5999"></path><path d="M694 310L691 210L618 307Z" fill="#337cc0" stroke="#337cc0"></path><path d="M579 123L577 0L531 128Z" fill="#144e8c" stroke="#144e8c"></path><path d="M422 600L476 600L484 525Z" fill="#4facf7" stroke="#4facf7"></path><path d="M691 210L674 130L569 182Z" fill="#4facf7" stroke="#4facf7"></path><path d="M674 130L577 0L579 123Z" fill="#2c70b3" stroke="#2c70b3"></path><path d="M137 600L215 600L175 466Z" fill="#4facf7" stroke="#4facf7"></path><path d="M313 0L173 0L277 65Z" fill="#4193dc" stroke="#4193dc"></path><path d="M216 76L85 61L111 173Z" fill="#144e8c" stroke="#144e8c"></path><path d="M476 600L575 600L484 525Z" fill="#4facf7" stroke="#4facf7"></path><path d="M637 437L738 416L694 310Z" fill="#4193dc" stroke="#4193dc"></path><path d="M173 0L85 61L216 76Z" fill="#4193dc" stroke="#4193dc"></path><path d="M111 173L0 270L116 307Z" fill="#2564a6" stroke="#2564a6"></path><path d="M575 600L696 491L598 461Z" fill="#4facf7" stroke="#4facf7"></path><path d="M0 192L0 270L111 173Z" fill="#2564a6" stroke="#2564a6"></path><path d="M60 526L137 600L175 466Z" fill="#4facf7" stroke="#4facf7"></path><path d="M696 491L738 416L637 437Z" fill="#2c70b3" stroke="#2c70b3"></path><path d="M694 310L785 294L691 210Z" fill="#2564a6" stroke="#2564a6"></path><path d="M691 210L819 178L674 130Z" fill="#0a437f" stroke="#0a437f"></path><path d="M0 101L0 192L111 173Z" fill="#4facf7" stroke="#4facf7"></path><path d="M60 526L160 438L91 398Z" fill="#144e8c" stroke="#144e8c"></path><path d="M0 270L0 410L91 398Z" fill="#337cc0" stroke="#337cc0"></path><path d="M0 487L60 526L91 398Z" fill="#003972" stroke="#003972"></path><path d="M173 0L96 0L85 61Z" fill="#48a0e9" stroke="#48a0e9"></path><path d="M85 61L0 101L111 173Z" fill="#4facf7" stroke="#4facf7"></path><path d="M738 416L785 294L694 310Z" fill="#144e8c" stroke="#144e8c"></path><path d="M0 0L0 101L85 61Z" fill="#337cc0" stroke="#337cc0"></path><path d="M0 410L0 487L91 398Z" fill="#0a437f" stroke="#0a437f"></path><path d="M60 526L0 600L137 600Z" fill="#1d5999" stroke="#1d5999"></path><path d="M760 0L698 0L674 130Z" fill="#2c70b3" stroke="#2c70b3"></path><path d="M674 130L698 0L577 0Z" fill="#4facf7" stroke="#4facf7"></path><path d="M817 476L800 415L738 416Z" fill="#4193dc" stroke="#4193dc"></path><path d="M738 416L800 415L785 294Z" fill="#003972" stroke="#003972"></path><path d="M817 476L738 416L696 491Z" fill="#48a0e9" stroke="#48a0e9"></path><path d="M900 275L819 178L785 294Z" fill="#1d5999" stroke="#1d5999"></path><path d="M785 294L819 178L691 210Z" fill="#337cc0" stroke="#337cc0"></path><path d="M96 0L0 0L85 61Z" fill="#0a437f" stroke="#0a437f"></path><path d="M575 600L738 600L696 491Z" fill="#3a87ce" stroke="#3a87ce"></path><path d="M738 600L817 476L696 491Z" fill="#0a437f" stroke="#0a437f"></path><path d="M900 378L900 275L785 294Z" fill="#3a87ce" stroke="#3a87ce"></path><path d="M834 82L760 0L674 130Z" fill="#2c70b3" stroke="#2c70b3"></path><path d="M0 487L0 600L60 526Z" fill="#1d5999" stroke="#1d5999"></path><path d="M819 178L834 82L674 130Z" fill="#003972" stroke="#003972"></path><path d="M900 93L834 82L819 178Z" fill="#2564a6" stroke="#2564a6"></path><path d="M900 378L785 294L800 415Z" fill="#003972" stroke="#003972"></path><path d="M738 600L798 600L817 476Z" fill="#337cc0" stroke="#337cc0"></path><path d="M817 476L900 378L800 415Z" fill="#3a87ce" stroke="#3a87ce"></path><path d="M900 275L900 212L819 178Z" fill="#0a437f" stroke="#0a437f"></path><path d="M900 498L900 378L817 476Z" fill="#3a87ce" stroke="#3a87ce"></path><path d="M900 212L900 93L819 178Z" fill="#003972" stroke="#003972"></path><path d="M834 82L900 0L760 0Z" fill="#1d5999" stroke="#1d5999"></path><path d="M798 600L900 498L817 476Z" fill="#48a0e9" stroke="#48a0e9"></path><path d="M900 93L900 0L834 82Z" fill="#3a87ce" stroke="#3a87ce"></path><path d="M798 600L900 600L900 498Z" fill="#48a0e9" stroke="#48a0e9"></path></g></svg>