<svg id="visual" viewBox="0 0 900 600" width="900" height="600" xmlns="http://www.w3.org/2000/svg" xmlns:xlink="http://www.w3.org/1999/xlink" version="1.1"><g stroke-width="1" stroke-linejoin="bevel"><path d="M421 293L484 381L518 322Z" fill="#0085ff" stroke="#0085ff"></path><path d="M421 293L413 415L484 381Z" fill="#008cff" stroke="#008cff"></path><path d="M464 178L434 181L421 293Z" fill="#2399fd" stroke="#2399fd"></path><path d="M518 322L464 178L421 293Z" fill="#0066ff" stroke="#0066ff"></path><path d="M486 529L603 429L484 381Z" fill="#33a0fb" stroke="#33a0fb"></path><path d="M484 381L603 429L518 322Z" fill="#4facf7" stroke="#4facf7"></path><path d="M518 322L568 192L464 178Z" fill="#0085ff" stroke="#0085ff"></path><path d="M638 311L568 192L518 322Z" fill="#41a6f9" stroke="#41a6f9"></path><path d="M300 190L291 305L421 293Z" fill="#006eff" stroke="#006eff"></path><path d="M421 293L282 377L413 415Z" fill="#2399fd" stroke="#2399fd"></path><path d="M603 429L638 311L518 322Z" fill="#33a0fb" stroke="#33a0fb"></path><path d="M291 305L282 377L421 293Z" fill="#0085ff" stroke="#0085ff"></path><path d="M282 377L379 511L413 415Z" fill="#006eff" stroke="#006eff"></path><path d="M413 415L486 529L484 381Z" fill="#0066ff" stroke="#0066ff"></path><path d="M379 511L486 529L413 415Z" fill="#007eff" stroke="#007eff"></path><path d="M423 110L300 190L434 181Z" fill="#0085ff" stroke="#0085ff"></path><path d="M434 181L300 190L421 293Z" fill="#4facf7" stroke="#4facf7"></path><path d="M291 305L224 315L282 377Z" fill="#1393fe" stroke="#1393fe"></path><path d="M464 178L423 110L434 181Z" fill="#2399fd" stroke="#2399fd"></path><path d="M476 70L423 110L464 178Z" fill="#0076ff" stroke="#0076ff"></path><path d="M486 529L638 469L603 429Z" fill="#0066ff" stroke="#0066ff"></path><path d="M603 429L661 436L638 311Z" fill="#1393fe" stroke="#1393fe"></path><path d="M638 469L661 436L603 429Z" fill="#0066ff" stroke="#0066ff"></path><path d="M638 311L684 263L568 192Z" fill="#4facf7" stroke="#4facf7"></path><path d="M786 381L684 263L638 311Z" fill="#007eff" stroke="#007eff"></path><path d="M671 189L577 122L568 192Z" fill="#0066ff" stroke="#0066ff"></path><path d="M568 192L577 122L464 178Z" fill="#0085ff" stroke="#0085ff"></path><path d="M216 222L224 315L291 305Z" fill="#0085ff" stroke="#0085ff"></path><path d="M282 377L306 539L379 511Z" fill="#0076ff" stroke="#0076ff"></path><path d="M684 263L671 189L568 192Z" fill="#1393fe" stroke="#1393fe"></path><path d="M577 122L476 70L464 178Z" fill="#007eff" stroke="#007eff"></path><path d="M214 133L216 222L300 190Z" fill="#0085ff" stroke="#0085ff"></path><path d="M228 464L306 539L282 377Z" fill="#41a6f9" stroke="#41a6f9"></path><path d="M393 600L518 600L486 529Z" fill="#4facf7" stroke="#4facf7"></path><path d="M300 190L216 222L291 305Z" fill="#41a6f9" stroke="#41a6f9"></path><path d="M324 60L300 190L423 110Z" fill="#0076ff" stroke="#0076ff"></path><path d="M185 404L282 377L224 315Z" fill="#4facf7" stroke="#4facf7"></path><path d="M185 404L228 464L282 377Z" fill="#008cff" stroke="#008cff"></path><path d="M393 600L486 529L379 511Z" fill="#4facf7" stroke="#4facf7"></path><path d="M486 529L518 600L638 469Z" fill="#006eff" stroke="#006eff"></path><path d="M306 539L393 600L379 511Z" fill="#0066ff" stroke="#0066ff"></path><path d="M671 189L676 138L577 122Z" fill="#006eff" stroke="#006eff"></path><path d="M515 0L436 0L476 70Z" fill="#33a0fb" stroke="#33a0fb"></path><path d="M800 196L676 138L671 189Z" fill="#2399fd" stroke="#2399fd"></path><path d="M131 269L185 404L224 315Z" fill="#0076ff" stroke="#0076ff"></path><path d="M638 469L716 492L661 436Z" fill="#0076ff" stroke="#0076ff"></path><path d="M661 436L786 381L638 311Z" fill="#33a0fb" stroke="#33a0fb"></path><path d="M684 263L800 196L671 189Z" fill="#0076ff" stroke="#0076ff"></path><path d="M635 600L716 492L638 469Z" fill="#1393fe" stroke="#1393fe"></path><path d="M436 0L324 60L423 110Z" fill="#33a0fb" stroke="#33a0fb"></path><path d="M202 600L310 600L306 539Z" fill="#0076ff" stroke="#0076ff"></path><path d="M306 539L310 600L393 600Z" fill="#4facf7" stroke="#4facf7"></path><path d="M202 600L306 539L228 464Z" fill="#006eff" stroke="#006eff"></path><path d="M324 60L214 133L300 190Z" fill="#1393fe" stroke="#1393fe"></path><path d="M216 222L131 269L224 315Z" fill="#006eff" stroke="#006eff"></path><path d="M518 600L635 600L638 469Z" fill="#41a6f9" stroke="#41a6f9"></path><path d="M716 492L786 381L661 436Z" fill="#41a6f9" stroke="#41a6f9"></path><path d="M515 0L476 70L577 122Z" fill="#008cff" stroke="#008cff"></path><path d="M476 70L436 0L423 110Z" fill="#33a0fb" stroke="#33a0fb"></path><path d="M619 0L515 0L577 122Z" fill="#41a6f9" stroke="#41a6f9"></path><path d="M80 221L131 269L216 222Z" fill="#0076ff" stroke="#0076ff"></path><path d="M786 381L807 338L684 263Z" fill="#006eff" stroke="#006eff"></path><path d="M436 0L337 0L324 60Z" fill="#006eff" stroke="#006eff"></path><path d="M183 0L136 88L214 133Z" fill="#1393fe" stroke="#1393fe"></path><path d="M807 338L800 196L684 263Z" fill="#0066ff" stroke="#0066ff"></path><path d="M676 138L619 0L577 122Z" fill="#0066ff" stroke="#0066ff"></path><path d="M735 0L619 0L676 138Z" fill="#007eff" stroke="#007eff"></path><path d="M635 600L711 600L716 492Z" fill="#4facf7" stroke="#4facf7"></path><path d="M716 492L833 483L786 381Z" fill="#4facf7" stroke="#4facf7"></path><path d="M786 381L900 418L807 338Z" fill="#4facf7" stroke="#4facf7"></path><path d="M83 464L202 600L228 464Z" fill="#006eff" stroke="#006eff"></path><path d="M83 464L228 464L185 404Z" fill="#006eff" stroke="#006eff"></path><path d="M214 133L80 221L216 222Z" fill="#41a6f9" stroke="#41a6f9"></path><path d="M131 269L65 361L185 404Z" fill="#33a0fb" stroke="#33a0fb"></path><path d="M136 88L80 221L214 133Z" fill="#0066ff" stroke="#0066ff"></path><path d="M80 221L65 361L131 269Z" fill="#008cff" stroke="#008cff"></path><path d="M795 600L833 483L716 492Z" fill="#0085ff" stroke="#0085ff"></path><path d="M900 196L820 133L800 196Z" fill="#0066ff" stroke="#0066ff"></path><path d="M65 361L83 464L185 404Z" fill="#2399fd" stroke="#2399fd"></path><path d="M183 0L214 133L324 60Z" fill="#007eff" stroke="#007eff"></path><path d="M900 270L800 196L807 338Z" fill="#0066ff" stroke="#0066ff"></path><path d="M800 196L820 133L676 138Z" fill="#007eff" stroke="#007eff"></path><path d="M820 133L735 0L676 138Z" fill="#0085ff" stroke="#0085ff"></path><path d="M711 600L795 600L716 492Z" fill="#0066ff" stroke="#0066ff"></path><path d="M337 0L183 0L324 60Z" fill="#0085ff" stroke="#0085ff"></path><path d="M900 418L900 270L807 338Z" fill="#4facf7" stroke="#4facf7"></path><path d="M833 483L900 418L786 381Z" fill="#006eff" stroke="#006eff"></path><path d="M900 460L900 418L833 483Z" fill="#007eff" stroke="#007eff"></path><path d="M900 600L900 460L833 483Z" fill="#1393fe" stroke="#1393fe"></path><path d="M900 270L900 196L800 196Z" fill="#0085ff" stroke="#0085ff"></path><path d="M820 133L798 0L735 0Z" fill="#006eff" stroke="#006eff"></path><path d="M0 493L94 600L83 464Z" fill="#0066ff" stroke="#0066ff"></path><path d="M83 464L94 600L202 600Z" fill="#41a6f9" stroke="#41a6f9"></path><path d="M0 168L80 221L136 88Z" fill="#1393fe" stroke="#1393fe"></path><path d="M0 168L0 326L80 221Z" fill="#008cff" stroke="#008cff"></path><path d="M80 221L0 326L65 361Z" fill="#006eff" stroke="#006eff"></path><path d="M65 361L0 377L83 464Z" fill="#008cff" stroke="#008cff"></path><path d="M0 326L0 377L65 361Z" fill="#2399fd" stroke="#2399fd"></path><path d="M183 0L129 0L136 88Z" fill="#2399fd" stroke="#2399fd"></path><path d="M900 106L798 0L820 133Z" fill="#1393fe" stroke="#1393fe"></path><path d="M0 100L0 168L136 88Z" fill="#007eff" stroke="#007eff"></path><path d="M0 377L0 493L83 464Z" fill="#0066ff" stroke="#0066ff"></path><path d="M900 196L900 106L820 133Z" fill="#2399fd" stroke="#2399fd"></path><path d="M795 600L900 600L833 483Z" fill="#0085ff" stroke="#0085ff"></path><path d="M0 0L0 100L136 88Z" fill="#1393fe" stroke="#1393fe"></path><path d="M0 493L0 600L94 600Z" fill="#1393fe" stroke="#1393fe"></path><path d="M900 106L900 0L798 0Z" fill="#0076ff" stroke="#0076ff"></path><path d="M129 0L0 0L136 88Z" fill="#006eff" stroke="#006eff"></path></g></svg>