<?xml version="1.0" standalone="no"?>
<!DOCTYPE svg PUBLIC "-//W3C//DTD SVG 20010904//EN"
 "http://www.w3.org/TR/2001/REC-SVG-20010904/DTD/svg10.dtd">
<svg version="1.0" xmlns="http://www.w3.org/2000/svg"
 width="612.000000pt" height="612.000000pt" viewBox="0 0 612.000000 612.000000"
 preserveAspectRatio="xMidYMid meet">

<g transform="translate(0.000000,612.000000) scale(0.100000,-0.100000)"
fill="#000000" stroke="none">
<path d="M0 3060 l0 -3060 3060 0 3060 0 0 3060 0 3060 -3060 0 -3060 0 0
-3060z m3146 1719 c242 -24 435 -100 552 -217 103 -103 141 -196 142 -347 1
-276 -199 -526 -564 -704 -194 -96 -336 -142 -528 -172 -43 -6 -78 -13 -78
-15 0 -8 341 -521 418 -629 372 -519 693 -837 950 -938 180 -71 427 -35 498
73 24 36 51 177 40 207 -5 11 1 14 27 11 90 -9 91 -210 3 -386 -121 -241 -365
-370 -601 -317 -174 38 -365 174 -563 399 -285 322 -528 692 -872 1320 -69
126 -129 230 -135 230 -17 2 -288 -326 -399 -483 -98 -139 -117 -184 -122
-287 -3 -48 -9 -95 -15 -105 -15 -29 -56 -35 -87 -12 -66 49 -97 165 -90 337
4 95 6 106 49 196 86 180 241 403 549 790 225 282 315 411 326 469 9 45 32 54
91 36 103 -31 181 -134 168 -221 -11 -77 -114 -262 -235 -421 -39 -53 -34 -54
109 -12 331 95 594 305 705 563 27 63 30 82 31 171 0 92 -2 104 -30 154 -55
100 -152 163 -308 203 -116 29 -337 22 -485 -17 -543 -141 -1022 -588 -1022
-955 0 -95 22 -149 85 -208 31 -29 53 -58 49 -63 -4 -6 -23 -8 -48 -4 -136 22
-241 128 -287 290 -9 32 -14 99 -14 185 0 150 13 198 78 296 245 371 1002 644
1613 583z"/>
</g>
</svg>
